<svg xmlns="http://www.w3.org/2000/svg" width="980" height="620" viewBox="0 0 980 620">
<style>
text { font-family: Helvetica, Arial, sans-serif; fill: #1b1b1b; }
.title { font-size: 24px; font-weight: 700; }
.axis-label { font-size: 18px; font-weight: 600; }
.tick { font-size: 14px; }
.legend { font-size: 14px; }
.grid { stroke: #d9dde3; stroke-width: 1; }
.axis { stroke: #30343b; stroke-width: 1.5; }
</style>
<rect width="100%" height="100%" fill="#ffffff"/>
<text class="title" x="490.0" y="38" text-anchor="middle">Section 1: Version 2 Speedup</text>
<line class="grid" x1="95" y1="535.00" x2="940" y2="535.00"/>
<text class="tick" x="83" y="540.00" text-anchor="end">0</text>
<line class="grid" x1="95" y1="442.00" x2="940" y2="442.00"/>
<text class="tick" x="83" y="447.00" text-anchor="end">0.44</text>
<line class="grid" x1="95" y1="349.00" x2="940" y2="349.00"/>
<text class="tick" x="83" y="354.00" text-anchor="end">0.88</text>
<line class="grid" x1="95" y1="256.00" x2="940" y2="256.00"/>
<text class="tick" x="83" y="261.00" text-anchor="end">1.32</text>
<line class="grid" x1="95" y1="163.00" x2="940" y2="163.00"/>
<text class="tick" x="83" y="168.00" text-anchor="end">1.76</text>
<line class="grid" x1="95" y1="70.00" x2="940" y2="70.00"/>
<text class="tick" x="83" y="75.00" text-anchor="end">2.20</text>
<line class="grid" x1="95.00" y1="70" x2="95.00" y2="535"/>
<text class="tick" x="95.00" y="561" text-anchor="middle">1024</text>
<line class="grid" x1="306.25" y1="70" x2="306.25" y2="535"/>
<text class="tick" x="306.25" y="561" text-anchor="middle">1536</text>
<line class="grid" x1="517.50" y1="70" x2="517.50" y2="535"/>
<text class="tick" x="517.50" y="561" text-anchor="middle">2048</text>
<line class="grid" x1="728.75" y1="70" x2="728.75" y2="535"/>
<text class="tick" x="728.75" y="561" text-anchor="middle">2560</text>
<line class="grid" x1="940.00" y1="70" x2="940.00" y2="535"/>
<text class="tick" x="940.00" y="561" text-anchor="middle">3072</text>
<line class="axis" x1="95" y1="535" x2="940" y2="535"/>
<line class="axis" x1="95" y1="70" x2="95" y2="535"/>
<text class="axis-label" x="490.0" y="596" text-anchor="middle">Matrix size</text>
<text class="axis-label" transform="translate(28 310.0) rotate(-90)" text-anchor="middle">Speedup</text>
<polyline fill="none" stroke="#1f77b4" stroke-width="3" points="95.00,165.00 306.25,242.09 517.50,157.22 728.75,116.85 940.00,104.44"/>
<circle cx="95.00" cy="165.00" r="4.5" fill="#1f77b4" />
<circle cx="306.25" cy="242.09" r="4.5" fill="#1f77b4" />
<circle cx="517.50" cy="157.22" r="4.5" fill="#1f77b4" />
<circle cx="728.75" cy="116.85" r="4.5" fill="#1f77b4" />
<circle cx="940.00" cy="104.44" r="4.5" fill="#1f77b4" />
<line x1="105" y1="42" x2="131" y2="42" stroke="#1f77b4" stroke-width="3"/>
<circle cx="118" cy="42" r="4.5" fill="#1f77b4" />
<text class="legend" x="141" y="47">lineParallel1</text>
<polyline fill="none" stroke="#d62728" stroke-width="3" points="95.00,508.69 306.25,502.59 517.50,477.54 728.75,458.28 940.00,443.39"/>
<circle cx="95.00" cy="508.69" r="4.5" fill="#d62728" />
<circle cx="306.25" cy="502.59" r="4.5" fill="#d62728" />
<circle cx="517.50" cy="477.54" r="4.5" fill="#d62728" />
<circle cx="728.75" cy="458.28" r="4.5" fill="#d62728" />
<circle cx="940.00" cy="443.39" r="4.5" fill="#d62728" />
<line x1="105" y1="66" x2="131" y2="66" stroke="#d62728" stroke-width="3"/>
<circle cx="118" cy="66" r="4.5" fill="#d62728" />
<text class="legend" x="141" y="71">lineSimd</text>
<polyline fill="none" stroke="#2ca02c" stroke-width="3" points="95.00,507.57 306.25,510.27 517.50,500.36 728.75,496.56 940.00,495.41"/>
<circle cx="95.00" cy="507.57" r="4.5" fill="#2ca02c" />
<circle cx="306.25" cy="510.27" r="4.5" fill="#2ca02c" />
<circle cx="517.50" cy="500.36" r="4.5" fill="#2ca02c" />
<circle cx="728.75" cy="496.56" r="4.5" fill="#2ca02c" />
<circle cx="940.00" cy="495.41" r="4.5" fill="#2ca02c" />
<line x1="105" y1="90" x2="131" y2="90" stroke="#2ca02c" stroke-width="3"/>
<circle cx="118" cy="90" r="4.5" fill="#2ca02c" />
<text class="legend" x="141" y="95">lineCollapse</text>
</svg>